<svg xmlns="http://www.w3.org/2000/svg" width="876.4" height="189.521"><g data-name="mcollectLogo (1)" fill="#864b9c"><g data-name="Group 277"><path data-name="Path 661" d="M94.71 189.52A94.738 94.738 0 0 1 0 94.57C.01 42.3 42.52-.01 95 .01c52.29.02 94.56 42.57 94.51 95.14-.04 52.04-42.57 94.37-94.8 94.37zm87.08-94.76a87.03 87.03 0 1 0-87.03 87.03 87.095 87.095 0 0 0 87.03-87.03z"/><path data-name="Path 662" d="M157.48 52.42c-9.66.64-15.49 6.52-20.09 14.33-.17-.45-.31-.79-.43-1.13-3.25-9.48-11-13.77-20.26-13.1-8.19.59-13.96 5.04-18.17 11.82-.2.33-.4.66-.61.99-.01.02-.05.01-.18.04V54.4H87.47v82.64h11.4v-1.24c.02-15.19-.01-30.39.09-45.58a44.964 44.964 0 0 1 2.33-15.07c1.9-5.3 5.41-8.97 11.05-10.25a13.762 13.762 0 0 1 6.35-.04 10.087 10.087 0 0 1 7.19 6.34 25.831 25.831 0 0 1 1.74 9.87c.05 15.97.04 31.94.05 47.91v8.04h11.46v-1.23q0-23.715.03-47.42a35.872 35.872 0 0 1 2.09-13.23c2.03-5.18 5.52-8.85 11.08-10.17 7.1-1.68 13.24 1.9 15.23 8.92a75.721 75.721 0 1 1-97.09-50.82 73.19 73.19 0 0 1 31.14-3.66c23.28 2.36 41.65 13.22 55.33 32.14.16.23.31.5.54.87z"/></g><g data-name="Group 278"><path data-name="Path 663" d="M350.21 51.81a81.646 81.646 0 0 0-21.56-15.37 70.335 70.335 0 0 0-28.5-6.44c-38.17 0-66.43 30.74-66.43 68.91 0 44.86 36.44 67.42 66.68 67.42a68.72 68.72 0 0 0 30.73-7.68 75.451 75.451 0 0 0 19.09-13.88v22.8a86.055 86.055 0 0 1-49.82 16.11c-49.08 0-85.51-37.18-85.51-85.02 0-49.33 36.93-86.01 86.5-86.01a77.928 77.928 0 0 1 48.83 16.36v22.8z"/><path data-name="Path 664" d="M373 129.63c0-31.23 23.05-54.28 54.53-54.28s54.53 23.05 54.53 54.28-23.3 54.03-54.53 54.03S373 160.87 373 129.63zm18.35 0c0 25.28 17.85 38.17 36.19 38.17 18.59 0 36.19-13.14 36.19-38.17 0-25.28-17.35-38.42-36.19-38.42s-36.19 13.39-36.19 38.42z"/><path data-name="Path 665" d="M527.17 0v180.69h-17.85V0z"/><path data-name="Path 666" d="M578.72 0v180.69h-17.85V0z"/><path data-name="Path 667" d="M703.64 154.42A61.586 61.586 0 0 1 691 171.03c-9.42 8.43-21.07 12.64-34.21 12.64-24.79 0-50.81-15.62-50.81-53.79 0-30.73 18.84-54.53 49.82-54.53 20.08 0 32.72 9.91 38.92 18.84 6.44 9.17 10.16 25.03 9.67 38.67h-80.06c.25 21.32 14.87 34.95 32.72 34.95a31.262 31.262 0 0 0 21.07-7.44 40.987 40.987 0 0 0 10.66-14.13zm-17.59-36.44c-2.97-16.11-15.12-26.77-30.24-26.77s-27.51 11.4-30.24 26.77z"/><path data-name="Path 668" d="M812.2 106.58c-9.42-11.9-23.05-15.37-32.22-15.37-19.08 0-36.44 13.38-36.44 38.42s17.85 38.17 36.19 38.17a43.848 43.848 0 0 0 33.21-16.11v21.32a54.927 54.927 0 0 1-32.72 10.66c-31.97 0-55.03-22.8-55.03-53.79 0-31.48 23.3-54.53 55.03-54.53a54.448 54.448 0 0 1 31.97 9.91v21.32z"/><path data-name="Path 669" d="M858.55 94.19v86.5H840.7v-86.5h-10.91V77.83h10.91V40.65h17.85v37.18h17.85v16.36z"/></g></g></svg>